<?xml version="1.0" standalone="no"?>
<!DOCTYPE svg PUBLIC "-//W3C//DTD SVG 20010904//EN"
 "http://www.w3.org/TR/2001/REC-SVG-20010904/DTD/svg10.dtd">
<svg version="1.0" xmlns="http://www.w3.org/2000/svg"
 width="260.000000pt" height="260.000000pt" viewBox="0 0 260.000000 260.000000"
 preserveAspectRatio="xMidYMid meet">

<g transform="translate(0.000000,260.000000) scale(0.100000,-0.100000)"
fill="#000000" stroke="none">
<path d="M1206 2457 c-100 -191 -88 -182 -130 -99 -20 39 -40 73 -45 76 -5 4
-18 -30 -28 -75 l-19 -82 -60 134 c-72 163 -73 160 -49 -139 10 -117 15 -216
12 -219 -4 -3 -54 16 -113 41 -59 26 -113 46 -121 44 -9 -2 7 -36 53 -111 36
-59 64 -110 62 -112 -2 -3 -98 34 -213 80 -196 79 -235 93 -235 80 0 -3 54
-138 119 -300 66 -162 118 -295 116 -295 -1 0 -78 21 -170 46 -92 25 -169 43
-171 41 -3 -3 12 -46 32 -96 20 -51 34 -94 31 -97 -2 -3 -53 34 -112 81 -60
47 -114 85 -122 85 -15 0 -18 14 48 -230 26 -96 44 -179 39 -183 -4 -5 -33
-11 -64 -14 -31 -3 -56 -8 -56 -10 0 -3 16 -32 35 -64 19 -33 35 -64 35 -70 0
-5 -12 -27 -26 -49 l-26 -39 46 -53 c45 -51 54 -68 39 -68 -5 0 -26 -15 -47
-34 l-40 -33 82 -43 c45 -23 82 -47 82 -52 0 -6 -16 -33 -35 -59 -19 -27 -35
-51 -35 -54 0 -12 53 -4 100 15 88 35 70 50 210 -177 35 -57 67 -103 71 -103
5 0 18 33 30 73 11 39 31 105 42 144 12 40 24 73 27 73 3 0 34 -72 69 -160 34
-88 64 -160 66 -160 2 0 24 39 50 86 26 47 51 82 55 77 5 -4 23 -42 40 -83 18
-41 36 -79 40 -83 4 -5 41 5 81 22 40 17 75 28 78 26 2 -3 -6 -28 -19 -55 -13
-27 -21 -52 -19 -54 2 -3 73 27 156 66 l152 70 153 -60 c84 -33 162 -63 173
-66 18 -5 64 52 325 403 l304 409 136 313 c149 340 152 353 120 460 -12 43
-12 53 9 119 19 60 21 74 10 81 -45 26 -50 34 -40 62 15 39 14 47 -8 47 -49 0
-52 10 -16 63 19 28 33 53 31 55 -3 2 -41 -6 -85 -17 -44 -12 -84 -21 -89 -21
-5 0 4 36 19 81 l29 81 -40 -7 c-22 -4 -96 -24 -165 -45 -69 -20 -125 -33
-125 -28 0 5 16 34 35 64 58 91 51 93 -76 24 -51 -27 -96 -50 -101 -50 -11 0
-11 1 12 135 22 131 24 155 11 155 -5 0 -67 -45 -138 -100 -70 -55 -131 -100
-135 -100 -4 0 -10 32 -14 70 -4 39 -11 73 -16 76 -6 4 -54 -37 -108 -91 l-98
-98 -29 50 c-15 28 -53 98 -83 157 -30 58 -59 106 -65 106 -5 0 -41 -60 -79
-133z m160 -125 c48 -86 77 -128 90 -130 12 -2 43 21 89 68 38 38 73 70 77 70
5 0 8 -15 8 -34 0 -36 21 -66 47 -66 16 0 86 47 164 112 26 21 51 38 56 38 6
0 4 -36 -4 -87 -8 -48 -13 -98 -11 -111 4 -36 37 -44 87 -21 41 18 42 18 39 0
-2 -10 5 -28 15 -39 18 -19 18 -19 125 9 59 16 120 33 136 39 16 6 31 8 33 6
3 -2 -3 -28 -11 -57 -15 -49 -15 -54 1 -71 17 -19 52 -19 99 -1 11 4 13 -1 8
-25 -5 -26 -3 -31 25 -40 17 -6 31 -15 31 -21 0 -21 -21 -21 -62 0 -24 12 -61
24 -82 25 -21 2 -50 11 -63 20 -14 8 -43 17 -66 19 -23 1 -69 11 -102 20 -33
10 -69 18 -80 17 -11 -1 -51 10 -89 24 -52 19 -72 22 -82 13 -15 -12 -142 15
-238 52 l-50 18 -79 -42 c-44 -23 -82 -48 -84 -54 -3 -7 -15 -13 -27 -13 -15
0 -120 -99 -341 -320 -236 -236 -340 -333 -395 -369 -156 -100 -422 -262 -426
-259 -2 2 -10 31 -18 63 -8 33 -24 93 -36 133 -12 41 -19 76 -16 79 3 3 24
-10 48 -29 24 -19 65 -50 92 -68 l49 -33 19 23 c24 29 23 47 -7 114 -14 31
-25 62 -25 70 0 9 36 2 132 -26 73 -21 143 -36 155 -33 44 11 37 41 -71 308
-58 141 -101 257 -97 257 4 0 86 -31 182 -70 179 -72 206 -79 227 -58 19 19
14 48 -19 106 -17 30 -29 56 -26 58 2 2 30 -7 63 -20 55 -23 60 -23 77 -8 16
15 18 29 13 127 -3 60 -3 103 0 94 7 -22 42 -31 66 -18 10 6 21 23 25 40 7 36
20 37 35 4 8 -17 19 -25 37 -25 22 0 32 10 60 63 72 132 113 198 119 192 4 -4
39 -64 78 -133z m244 -238 c59 -24 51 -38 -16 -29 -54 6 -58 5 -90 -26 -25
-24 -34 -42 -34 -66 0 -24 -5 -33 -16 -33 -14 0 -16 9 -12 51 6 55 19 71 83
103 37 19 36 19 85 0z m146 -41 c27 -9 43 -18 36 -21 -7 -2 -26 2 -43 8 -25
11 -32 10 -48 -4 -9 -9 -22 -16 -28 -16 -21 0 -37 -34 -38 -79 0 -34 -4 -46
-15 -46 -11 0 -16 13 -17 50 -3 49 -2 51 45 87 26 20 50 37 53 38 3 0 28 -8
55 -17z m175 -23 c22 -12 37 -25 34 -31 -4 -6 -19 -2 -39 11 l-33 20 -41 -32
c-35 -27 -42 -38 -42 -68 0 -91 -31 -106 -41 -19 -7 53 -6 55 30 88 33 30 64
49 84 50 4 1 26 -8 48 -19z m-197 -36 c10 -26 7 -56 -6 -52 -13 5 -29 53 -20
62 10 10 20 6 26 -10z m310 8 c3 -5 -15 -23 -40 -41 -45 -31 -45 -32 -42 -83
3 -53 -17 -81 -26 -36 -18 89 -17 91 37 130 55 40 63 43 71 30z m-638 -10 c6
-4 10 -20 10 -36 -1 -24 5 -31 36 -42 42 -14 48 -11 48 29 0 26 3 29 23 23 12
-3 27 -6 33 -6 6 0 14 -19 17 -41 6 -49 13 -57 52 -61 28 -3 30 -1 33 36 3 37
4 38 34 32 44 -9 58 -24 58 -61 0 -28 4 -33 31 -39 39 -7 49 -1 49 30 0 20 5
24 28 24 35 0 52 -16 52 -50 0 -22 7 -29 37 -38 44 -14 53 -9 53 28 0 28 1 29
30 19 23 -9 30 -17 30 -38 0 -20 7 -31 25 -39 42 -19 55 -15 55 18 0 28 3 30
35 30 34 0 35 -1 35 -38 0 -32 5 -41 25 -50 48 -22 65 -11 65 44 0 16 5 22 15
19 49 -15 47 -12 26 -53 -10 -20 -120 -191 -243 -378 l-223 -341 -230 -213
c-126 -117 -241 -223 -255 -236 l-26 -24 -585 238 c-322 130 -587 242 -588
247 -1 6 124 89 279 185 l283 175 300 308 c294 301 319 322 353 299z m704 -7
c23 -9 28 -14 15 -14 -11 0 -31 6 -45 14 -31 18 -16 18 30 0z m-212 -51 c4
-46 -12 -36 -23 15 -6 26 -4 32 6 29 8 -3 15 -22 17 -44z m361 17 c24 -10 39
-21 33 -25 -6 -3 -26 1 -45 10 -35 17 -35 17 -81 -16 -45 -33 -46 -35 -46 -87
0 -29 -4 -53 -10 -53 -16 0 -30 36 -30 77 1 34 6 42 52 76 59 42 66 43 127 18z
m-196 -43 c-6 -7 -13 -22 -16 -33 -3 -14 -5 -11 -6 10 -1 17 -4 41 -7 55 l-7
25 23 -22 c17 -16 21 -25 13 -35z m409 -36 c13 -13 88 -223 83 -232 -3 -4 -14
-6 -25 -3 -15 4 -18 11 -14 29 4 16 -5 53 -26 104 -28 70 -38 84 -75 105 -53
31 -68 31 -111 -1 -31 -24 -34 -31 -34 -80 0 -30 -4 -54 -10 -54 -16 0 -30 36
-30 77 0 37 3 40 62 75 l61 36 56 -24 c31 -14 59 -28 63 -32z m-249 29 c3 -11
-1 -22 -9 -25 -16 -6 -28 10 -20 29 8 21 23 18 29 -4z m139 -71 c14 -25 14
-30 3 -30 -14 0 -35 29 -35 49 0 20 15 11 32 -19z m38 -109 c0 -6 -37 -81 -81
-168 -45 -87 -122 -237 -171 -333 -61 -121 -101 -186 -127 -210 -20 -19 -172
-157 -337 -306 l-300 -271 -99 42 c-179 76 -575 244 -830 352 -137 59 -252
108 -254 109 -2 2 2 10 8 18 10 12 19 13 39 5 15 -6 270 -109 567 -230 298
-120 546 -219 554 -219 7 0 130 110 274 244 l263 244 219 342 c121 188 228
352 238 366 19 24 37 32 37 15z m79 -56 c2 -2 -65 -142 -148 -311 l-151 -307
-228 -236 c-125 -130 -282 -292 -348 -360 l-121 -124 -637 259 c-606 247 -635
259 -618 276 20 20 -31 40 762 -298 212 -90 391 -164 398 -164 7 0 167 142
357 316 l345 315 71 142 c39 78 114 224 166 325 92 178 96 183 122 177 14 -4
28 -8 30 -10z m-84 -299 c-65 -127 -162 -316 -216 -421 l-98 -190 -232 -260
c-128 -143 -238 -259 -245 -259 -12 1 -1294 513 -1303 521 -45 35 549 -198
1151 -451 l37 -16 360 377 361 377 53 105 c181 362 241 474 245 462 2 -8 -48
-118 -113 -245z m30 -81 c-64 -147 -123 -281 -132 -299 -16 -31 -561 -775
-593 -809 -17 -18 -42 -9 -693 244 -518 201 -674 265 -666 275 8 9 24 7 72
-13 34 -14 316 -128 626 -255 310 -126 569 -228 576 -226 8 2 122 126 254 276
271 307 229 242 506 787 87 170 160 305 162 299 2 -6 -48 -132 -112 -279z
m-2287 -409 c3 -12 -1 -17 -10 -14 -7 3 -15 13 -16 22 -3 12 1 17 10 14 7 -3
15 -13 16 -22z m72 -119 c0 -15 9 -29 25 -37 18 -10 25 -22 25 -42 0 -26 7
-32 66 -58 36 -17 99 -42 140 -56 64 -23 74 -29 68 -46 -3 -11 -14 -49 -25
-85 -18 -65 -25 -80 -33 -72 -2 2 -21 33 -43 69 -111 182 -91 164 -164 148 -8
-2 -13 3 -10 12 9 38 3 46 -58 79 l-65 34 27 23 c15 13 27 30 27 39 0 8 5 15
10 15 6 0 10 -10 10 -23z m590 -328 c0 -17 -53 -99 -60 -92 -10 12 -50 114
-50 128 0 10 15 7 55 -8 30 -12 55 -25 55 -28z m189 -69 c47 -16 88 -33 93
-38 8 -8 -96 -62 -121 -62 -10 0 -61 101 -61 121 0 12 -7 13 89 -21z m213 -81
c20 -11 20 -12 -12 -25 -18 -8 -33 -14 -35 -14 -1 0 0 11 3 25 5 28 13 30 44
14z"/>
<path d="M1256 1871 c-10 -11 -16 -25 -14 -32 4 -13 48 27 48 43 0 14 -16 9
-34 -11z"/>
<path d="M1196 1708 c-126 -162 -146 -182 -308 -316 -135 -112 -210 -166 -343
-244 -183 -108 -181 -106 -174 -113 3 -2 81 38 173 89 139 77 199 118 346 237
187 152 180 145 443 495 10 13 14 24 8 24 -5 0 -71 -78 -145 -172z"/>
<path d="M1360 1811 c0 -5 37 -21 83 -35 334 -100 696 -206 707 -206 44 0 -44
30 -380 129 -206 62 -383 114 -392 117 -10 3 -18 1 -18 -5z"/>
<path d="M1093 1680 c-18 -19 -29 -38 -26 -43 8 -13 66 48 61 63 -3 9 -15 1
-35 -20z"/>
<path d="M1250 1581 c0 -6 134 -53 298 -106 163 -53 324 -105 356 -116 65 -21
96 -25 80 -10 -10 11 -709 241 -730 241 -2 0 -4 -4 -4 -9z"/>
<path d="M905 1470 c-16 -16 -25 -33 -22 -37 8 -7 67 45 67 59 0 16 -17 8 -45
-22z"/>
<path d="M1042 1359 c4 -12 707 -289 736 -289 43 0 -27 31 -345 153 -439 168
-397 153 -391 136z"/>
<path d="M682 1302 c-34 -29 -40 -42 -19 -42 17 0 71 56 60 63 -5 3 -23 -7
-41 -21z"/>
<path d="M780 1192 c0 -11 770 -325 778 -317 10 10 -6 17 -378 168 -384 157
-400 163 -400 149z"/>
<path d="M408 1123 c-41 -21 -62 -43 -43 -43 12 0 84 40 90 51 12 19 1 17 -47
-8z"/>
<path d="M496 1011 c13 -14 828 -370 833 -365 3 2 0 8 -5 13 -14 12 -810 361
-825 361 -8 0 -9 -3 -3 -9z"/>
</g>
</svg>
