<?xml version="1.0" standalone="no"?>
<!DOCTYPE svg PUBLIC "-//W3C//DTD SVG 20010904//EN"
 "http://www.w3.org/TR/2001/REC-SVG-20010904/DTD/svg10.dtd">
<svg version="1.0" xmlns="http://www.w3.org/2000/svg"
 width="360.000000pt" height="360.000000pt" viewBox="0 0 360.000000 360.000000"
 preserveAspectRatio="xMidYMid meet">

<g transform="translate(0.000000,360.000000) scale(0.100000,-0.100000)"
fill="#000000" stroke="none">
<path d="M1468 3043 c6 -2 18 -2 25 0 6 3 1 5 -13 5 -14 0 -19 -2 -12 -5z"/>
<path d="M1418 3033 c7 -3 16 -2 19 1 4 3 -2 6 -13 5 -11 0 -14 -3 -6 -6z"/>
<path d="M1528 3033 c7 -3 16 -2 19 1 4 3 -2 6 -13 5 -11 0 -14 -3 -6 -6z"/>
<path d="M1322 2986 c-68 -50 -112 -103 -112 -134 0 -33 141 -342 156 -342 4
0 231 77 371 127 52 18 55 23 36 48 -15 19 -15 19 -8 -4 6 -18 4 -22 -6 -16
-8 5 -11 5 -7 0 10 -10 -152 -67 -170 -60 -8 3 -10 0 -6 -7 5 -8 -2 -9 -22 -4
-21 5 -25 4 -14 -4 8 -5 11 -10 5 -11 -21 -2 -41 -8 -75 -22 -19 -8 -49 -18
-66 -21 -29 -7 -33 -4 -53 34 -22 43 -29 77 -10 50 9 -13 10 -13 6 0 -2 8 -9
15 -16 15 -19 0 -91 158 -79 173 6 7 8 15 4 19 -3 3 -6 1 -6 -5 0 -20 -17 -13
-23 10 -3 11 1 34 9 50 23 45 95 110 115 105 12 -3 16 0 12 9 -3 8 1 14 10 14
9 0 19 5 22 10 13 22 -15 8 -73 -34z"/>
<path d="M1435 2990 c-49 -10 -130 -44 -139 -59 -10 -15 4 -14 23 3 26 22 111
46 163 46 65 0 88 -13 88 -50 0 -37 -62 -88 -122 -99 -30 -6 -35 -9 -16 -10
35 -1 73 14 100 39 12 11 25 20 28 20 13 0 30 52 24 75 -10 39 -64 52 -149 35z"/>
<path d="M1596 2981 c-3 -5 1 -11 9 -14 9 -4 12 -1 8 9 -6 16 -10 17 -17 5z"/>
<path d="M1636 2917 c3 -10 9 -15 12 -12 3 3 0 11 -7 18 -10 9 -11 8 -5 -6z"/>
<path d="M1275 2900 c3 -5 8 -10 11 -10 2 0 4 5 4 10 0 6 -5 10 -11 10 -5 0
-7 -4 -4 -10z"/>
<path d="M1692 2809 c24 -47 44 -83 46 -78 3 8 -63 137 -80 154 -5 6 10 -29
34 -76z"/>
<path d="M1280 2851 c0 -6 4 -13 10 -16 6 -3 7 1 4 9 -7 18 -14 21 -14 7z"/>
<path d="M1320 2820 c8 -5 22 -9 30 -9 10 0 8 3 -5 9 -27 12 -43 12 -25 0z"/>
<path d="M1310 2691 c0 -6 4 -13 10 -16 6 -3 7 1 4 9 -7 18 -14 21 -14 7z"/>
<path d="M2084 2415 c-27 -17 -67 -28 -117 -35 -83 -10 -121 -25 -152 -60 -11
-12 -38 -31 -59 -42 -35 -18 -51 -20 -145 -14 -93 6 -110 5 -141 -12 -19 -11
-37 -27 -38 -37 -3 -14 1 -13 28 7 29 21 41 23 159 23 139 0 140 0 237 80 24
20 49 28 107 34 71 8 102 19 155 52 21 13 30 29 15 29 -5 -1 -26 -12 -49 -25z"/>
<path d="M1270 2324 c1 -41 3 -54 10 -43 10 17 8 84 -3 95 -4 4 -7 -19 -7 -52z"/>
<path d="M781 2354 c0 -11 3 -14 6 -6 3 7 2 16 -1 19 -3 4 -6 -2 -5 -13z"/>
<path d="M1270 2264 c-44 -16 -73 -17 -88 -2 -25 25 -11 -1 17 -31 36 -38 80
-41 73 -4 -3 13 1 23 7 23 7 0 10 -4 7 -8 -3 -5 3 -26 14 -48 34 -72 34 -79
-3 -92 -18 -7 -40 -12 -48 -12 -16 0 -53 86 -43 102 3 5 -4 18 -16 28 -16 14
-28 16 -43 10 -12 -4 -21 -12 -20 -17 3 -11 75 -187 78 -191 3 -3 185 48 193
54 2 1 -12 47 -30 103 -35 108 -36 109 -98 85z"/>
<path d="M1230 2170 c6 -11 13 -20 16 -20 2 0 0 9 -6 20 -6 11 -13 20 -16 20
-2 0 0 -9 6 -20z"/>
<path d="M1269 2162 c-3 -20 -2 -29 4 -23 5 5 7 19 5 32 -3 20 -5 19 -9 -9z"/>
<path d="M2195 2118 c-33 -11 -90 -33 -126 -49 -36 -16 -79 -29 -95 -29 -31 0
-45 -7 -138 -64 -58 -35 -63 -36 -155 -36 -100 0 -159 -18 -169 -50 -4 -11 2
-10 24 5 23 15 49 20 130 21 110 3 143 12 222 66 34 24 66 37 102 41 28 3 66
15 84 26 18 11 61 28 96 37 65 16 100 33 100 46 0 10 -2 10 -75 -14z"/>
<path d="M1332 1950 c-51 -15 -95 -30 -98 -33 -10 -10 71 -197 85 -197 24 0
181 50 181 57 0 15 -65 203 -70 202 -3 0 -47 -14 -98 -29z m78 -65 c23 -62 23
-74 -1 -84 -67 -24 -67 -24 -83 14 -25 59 -24 67 14 81 51 18 59 17 70 -11z"/>
<path d="M2270 1846 c-83 -32 -102 -44 -142 -89 l-36 -42 -99 -6 c-100 -6
-111 -9 -206 -64 -36 -20 -67 -29 -118 -33 -77 -5 -84 -22 -10 -22 59 0 100
13 171 55 48 29 67 34 148 39 107 7 122 13 177 71 30 31 57 48 106 64 36 12
75 28 85 36 19 14 19 14 -1 14 -11 -1 -45 -11 -75 -23z"/>
<path d="M1433 1662 c-50 -15 -95 -30 -99 -34 -12 -13 69 -198 87 -198 15 0
169 48 177 55 5 5 -61 205 -68 204 -3 0 -46 -12 -97 -27z m81 -89 c9 -26 13
-50 9 -54 -5 -4 -25 -12 -46 -17 l-38 -11 -20 45 c-10 25 -19 49 -19 53 0 7
58 27 87 30 6 0 18 -20 27 -46z"/>
<path d="M1191 1124 c0 -11 3 -14 6 -6 3 7 2 16 -1 19 -3 4 -6 -2 -5 -13z"/>
<path d="M2765 1070 c-95 -34 -1038 -355 -1210 -412 -66 -22 -125 -44 -131
-49 -6 -5 -14 -5 -19 -1 -4 4 -5 0 -3 -8 3 -8 -1 -23 -10 -32 -11 -13 19 -6
114 27 71 24 329 112 574 195 245 83 510 173 589 200 119 40 149 54 169 79 28
37 28 37 -73 1z"/>
<path d="M1351 654 c0 -11 3 -14 6 -6 3 7 2 16 -1 19 -3 4 -6 -2 -5 -13z"/>
</g>
</svg>
